# xmcd
#
# Track frame offsets: 
#        150
#        23920
#        42210
#        57605
#
# Disc length: 1084 seconds
#
# Revision: 7
# Processed by: cddbd v1.5.2PL0 Copyright (c) Steve Scherf et al.
# Submitted via: ExactAudioCopyFreeDBPlugin 1.0
#
DISCID=30043a04
DTITLE=新居 昭乃 - 覚醒都市
DYEAR=2002
DGENRE=JPop
TTITLE0=覚醒都市
TTITLE1=黄昏は未来で待つ
TTITLE2=ポーリーヌ、ポーリーヌ
TTITLE3=覚醒都市 (without akino)
EXTD=YEAR: 2002
EXTT0=
EXTT1=
EXTT2=
EXTT3=
PLAYORDER=
